<?xml version="1.0" encoding="utf-8" ?>
<svg xmlns="http://www.w3.org/2000/svg" xmlns:cc="http://creativecommons.org/ns" xmlns:dc="http://purl.org/dc/elements/1.1/" xmlns:ev="http://www.w3.org/2001/xml-events" xmlns:inkscape="http://www.inkscape.org/namespaces/inkscape" xmlns:rdf="http://www.w3.org/1999/02/22-rdf-syntax-ns" xmlns:sodipodi="http://sodipodi.sourceforge.net/DTD/sodipodi-0.dtd" xmlns:xlink="http://www.w3.org/1999/xlink" baseProfile="tiny" height="320mm" version="1.2" viewBox="0 0 680.3149606299213 1209.448818897638" width="180mm">
  <metadata>
    <rdf:RDF>
      <cc:Work>
        <dc:format>image/svg+xml</dc:format>
        <dc:source>Generated with vsketch</dc:source>
        <dc:date>2026-05-28T01:11:15.956106</dc:date>
      </cc:Work>
    </rdf:RDF>
  </metadata>
  <defs/>
  <g fill="none" id="layer1" inkscape:groupmode="layer" inkscape:label="1" stroke="#0000ff" stroke-width="1.1339" style="display:inline">
    <line x1="494.7245" x2="407.6305" y1="202.0564" y2="330.7071"/>
    <line x1="363.1404" x2="347.5463" y1="977.5729" y2="823.4368"/>
    <line x1="556.1631" x2="535.7045" y1="524.5762" y2="308.5557"/>
    <line x1="347.5463" x2="344.3357" y1="823.4368" y2="653.7701"/>
    <line x1="220.9514" x2="44.7473" y1="989.1562" y2="1136.342"/>
    <line x1="623.741" x2="395.1951" y1="984.222" y2="1025.6377"/>
    <line x1="414.1305" x2="344.3357" y1="484.3959" y2="653.7701"/>
    <line x1="117.0213" x2="66.3119" y1="771.025" y2="862.4525"/>
    <line x1="395.1951" x2="119.3534" y1="1025.6377" y2="1173.6496"/>
    <line x1="616.8028" x2="535.7045" y1="37.2552" y2="308.5557"/>
    <line x1="328.407" x2="363.1404" y1="912.1148" y2="977.5729"/>
    <line x1="344.9138" x2="290.0607" y1="343.982" y2="352.9779"/>
    <line x1="628.866" x2="556.1631" y1="393.0316" y2="524.5762"/>
    <line x1="44.7473" x2="277.5316" y1="1136.342" y2="1085.118"/>
    <line x1="361.2291" x2="215.5981" y1="583.1575" y2="706.4308"/>
    <line x1="290.0607" x2="127.244" y1="352.9779" y2="460.1419"/>
    <line x1="615.6783" x2="425.1875" y1="856.2658" y2="780.3835"/>
    <line x1="220.9514" x2="66.3119" y1="989.1562" y2="862.4525"/>
    <line x1="201.4743" x2="78.2148" y1="311.2407" y2="176.9494"/>
    <line x1="220.9514" x2="119.3534" y1="989.1562" y2="1173.6496"/>
    <line x1="623.741" x2="363.1404" y1="984.222" y2="977.5729"/>
    <line x1="190.258" x2="66.3119" y1="1046.5488" y2="862.4525"/>
    <line x1="153.7752" x2="190.258" y1="979.1097" y2="1046.5488"/>
    <line x1="616.8028" x2="509.0862" y1="37.2552" y2="35.7992"/>
    <line x1="516.3667" x2="596.2451" y1="514.7986" y2="513.0429"/>
    <line x1="199.294" x2="146.4369" y1="218.1219" y2="325.3166"/>
    <line x1="190.258" x2="119.3534" y1="1046.5488" y2="1173.6496"/>
    <line x1="509.0862" x2="494.4252" y1="35.7992" y2="254.6474"/>
    <line x1="623.741" x2="548.2593" y1="984.222" y2="960.093"/>
    <line x1="52.2064" x2="78.2148" y1="150.8079" y2="176.9494"/>
    <line x1="281.304" x2="355.3071" y1="763.6836" y2="756.5927"/>
    <line x1="616.8028" x2="515.5412" y1="37.2552" y2="113.2006"/>
    <line x1="232.0468" x2="153.7752" y1="1057.1143" y2="979.1097"/>
    <line x1="615.6783" x2="623.741" y1="856.2658" y2="984.222"/>
    <line x1="290.0607" x2="201.4743" y1="352.9779" y2="311.2407"/>
    <line x1="492.7729" x2="425.1875" y1="787.8396" y2="780.3835"/>
    <line x1="328.407" x2="355.3071" y1="912.1148" y2="756.5927"/>
    <line x1="44.7473" x2="190.258" y1="1136.342" y2="1046.5488"/>
    <line x1="540.7103" x2="451.1953" y1="276.3875" y2="324.2416"/>
    <line x1="363.1404" x2="525.0044" y1="977.5729" y2="905.9236"/>
    <line x1="344.3357" x2="320.1747" y1="653.7701" y2="552.9585"/>
    <line x1="492.7729" x2="570.98" y1="787.8396" y2="793.1581"/>
    <line x1="199.294" x2="52.2064" y1="218.1219" y2="150.8079"/>
    <line x1="308.7623" x2="476.9206" y1="57.2461" y2="101.1683"/>
    <line x1="451.1953" x2="557.7711" y1="324.2416" y2="461.3961"/>
    <line x1="361.2291" x2="355.3071" y1="583.1575" y2="756.5927"/>
    <line x1="281.304" x2="347.5463" y1="763.6836" y2="823.4368"/>
    <line x1="494.7245" x2="494.4252" y1="202.0564" y2="254.6474"/>
    <line x1="361.2291" x2="344.3357" y1="583.1575" y2="653.7701"/>
    <line x1="117.0213" x2="188.8845" y1="771.025" y2="755.4152"/>
    <line x1="615.6783" x2="368.3266" y1="856.2658" y2="954.0959"/>
    <line x1="492.7729" x2="623.741" y1="787.8396" y2="984.222"/>
    <line x1="540.7103" x2="407.6305" y1="276.3875" y2="330.7071"/>
    <line x1="328.407" x2="347.5463" y1="912.1148" y2="823.4368"/>
    <line x1="44.7473" x2="232.0468" y1="1136.342" y2="1057.1143"/>
    <line x1="635.5676" x2="628.866" y1="272.3162" y2="393.0316"/>
    <line x1="623.741" x2="570.98" y1="984.222" y2="793.1581"/>
    <line x1="308.7623" x2="78.2148" y1="57.2461" y2="176.9494"/>
    <line x1="535.7045" x2="561.5251" y1="308.5557" y2="512.7356"/>
    <line x1="635.5676" x2="494.4252" y1="272.3162" y2="254.6474"/>
    <line x1="616.8028" x2="494.7245" y1="37.2552" y2="202.0564"/>
    <line x1="615.6783" x2="548.2593" y1="856.2658" y2="960.093"/>
    <line x1="635.5676" x2="557.7711" y1="272.3162" y2="461.3961"/>
    <line x1="281.304" x2="215.5981" y1="763.6836" y2="706.4308"/>
    <line x1="494.4252" x2="451.1953" y1="254.6474" y2="324.2416"/>
    <line x1="347.5463" x2="188.8845" y1="823.4368" y2="755.4152"/>
    <line x1="355.3071" x2="570.98" y1="756.5927" y2="793.1581"/>
    <line x1="127.244" x2="78.2148" y1="460.1419" y2="176.9494"/>
    <line x1="494.7245" x2="535.7045" y1="202.0564" y2="308.5557"/>
    <line x1="476.9206" x2="494.4252" y1="101.1683" y2="254.6474"/>
    <line x1="361.2291" x2="561.5251" y1="583.1575" y2="512.7356"/>
    <line x1="117.0213" x2="146.2557" y1="771.025" y2="830.9701"/>
    <line x1="220.9514" x2="153.7752" y1="989.1562" y2="979.1097"/>
    <line x1="363.1404" x2="119.3534" y1="977.5729" y2="1173.6496"/>
    <line x1="535.7045" x2="451.1953" y1="308.5557" y2="324.2416"/>
    <line x1="492.7729" x2="548.2593" y1="787.8396" y2="960.093"/>
    <line x1="312.3809" x2="320.1747" y1="466.2054" y2="552.9585"/>
    <line x1="215.5981" x2="355.3071" y1="706.4308" y2="756.5927"/>
    <line x1="628.866" x2="557.7711" y1="393.0316" y2="461.3961"/>
    <line x1="201.4743" x2="146.4369" y1="311.2407" y2="325.3166"/>
    <line x1="494.7245" x2="308.7623" y1="202.0564" y2="57.2461"/>
    <line x1="635.5676" x2="535.7045" y1="272.3162" y2="308.5557"/>
    <line x1="199.294" x2="99.4834" y1="218.1219" y2="234.2818"/>
    <line x1="220.9514" x2="146.2557" y1="989.1562" y2="830.9701"/>
    <line x1="281.304" x2="110.7498" y1="763.6836" y2="802.8964"/>
    <line x1="494.7245" x2="509.0862" y1="202.0564" y2="35.7992"/>
    <line x1="344.9138" x2="414.1305" y1="343.982" y2="484.3959"/>
    <line x1="361.2291" x2="414.1305" y1="583.1575" y2="484.3959"/>
    <line x1="52.2064" x2="146.4369" y1="150.8079" y2="325.3166"/>
    <line x1="277.5316" x2="119.3534" y1="1085.118" y2="1173.6496"/>
    <line x1="615.6783" x2="570.98" y1="856.2658" y2="793.1581"/>
    <line x1="361.2291" x2="556.1631" y1="583.1575" y2="524.5762"/>
    <line x1="290.0607" x2="78.2148" y1="352.9779" y2="176.9494"/>
    <line x1="494.7245" x2="515.5412" y1="202.0564" y2="113.2006"/>
    <line x1="344.9138" x2="451.1953" y1="343.982" y2="324.2416"/>
    <line x1="540.7103" x2="628.866" y1="276.3875" y2="393.0316"/>
    <line x1="361.2291" x2="320.1747" y1="583.1575" y2="552.9585"/>
    <line x1="201.4743" x2="199.294" y1="311.2407" y2="218.1219"/>
    <line x1="414.1305" x2="561.5251" y1="484.3959" y2="512.7356"/>
    <line x1="492.7729" x2="355.3071" y1="787.8396" y2="756.5927"/>
    <line x1="623.741" x2="525.0044" y1="984.222" y2="905.9236"/>
    <line x1="635.5676" x2="509.0862" y1="272.3162" y2="35.7992"/>
    <line x1="615.6783" x2="347.5463" y1="856.2658" y2="823.4368"/>
    <line x1="540.7103" x2="494.4252" y1="276.3875" y2="254.6474"/>
    <line x1="281.304" x2="344.3357" y1="763.6836" y2="653.7701"/>
    <line x1="215.5981" x2="347.5463" y1="706.4308" y2="823.4368"/>
    <line x1="232.0468" x2="395.1951" y1="1057.1143" y2="1025.6377"/>
    <line x1="201.4743" x2="343.4722" y1="311.2407" y2="421.821"/>
    <line x1="628.866" x2="535.7045" y1="393.0316" y2="308.5557"/>
    <line x1="201.4743" x2="52.2064" y1="311.2407" y2="150.8079"/>
    <line x1="425.1875" x2="570.98" y1="780.3835" y2="793.1581"/>
    <line x1="616.8028" x2="635.5676" y1="37.2552" y2="272.3162"/>
    <line x1="557.7711" x2="561.5251" y1="461.3961" y2="512.7356"/>
    <line x1="344.9138" x2="407.6305" y1="343.982" y2="330.7071"/>
    <line x1="476.9206" x2="509.0862" y1="101.1683" y2="35.7992"/>
    <line x1="127.244" x2="320.1747" y1="460.1419" y2="552.9585"/>
    <line x1="414.1305" x2="556.1631" y1="484.3959" y2="524.5762"/>
    <line x1="344.9138" x2="146.4369" y1="343.982" y2="325.3166"/>
    <line x1="232.0468" x2="277.5316" y1="1057.1143" y2="1085.118"/>
    <line x1="492.7729" x2="347.5463" y1="787.8396" y2="823.4368"/>
    <line x1="232.0468" x2="363.1404" y1="1057.1143" y2="977.5729"/>
    <line x1="414.1305" x2="320.1747" y1="484.3959" y2="552.9585"/>
    <line x1="312.3809" x2="343.4722" y1="466.2054" y2="421.821"/>
    <line x1="220.9514" x2="328.407" y1="989.1562" y2="912.1148"/>
    <line x1="153.7752" x2="66.3119" y1="979.1097" y2="862.4525"/>
    <line x1="548.2593" x2="570.98" y1="960.093" y2="793.1581"/>
    <line x1="540.7103" x2="535.7045" y1="276.3875" y2="308.5557"/>
    <line x1="153.7752" x2="119.3534" y1="979.1097" y2="1173.6496"/>
    <line x1="368.3266" x2="328.407" y1="954.0959" y2="912.1148"/>
    <line x1="190.258" x2="328.407" y1="1046.5488" y2="912.1148"/>
    <line x1="407.6305" x2="451.1953" y1="330.7071" y2="324.2416"/>
    <line x1="343.4722" x2="451.1953" y1="421.821" y2="324.2416"/>
    <line x1="616.8028" x2="476.9206" y1="37.2552" y2="101.1683"/>
    <line x1="344.9138" x2="199.294" y1="343.982" y2="218.1219"/>
    <line x1="355.3071" x2="344.3357" y1="756.5927" y2="653.7701"/>
    <line x1="347.5463" x2="425.1875" y1="823.4368" y2="780.3835"/>
    <line x1="343.4722" x2="320.1747" y1="421.821" y2="552.9585"/>
    <line x1="44.7473" x2="66.3119" y1="1136.342" y2="862.4525"/>
    <line x1="615.6783" x2="525.0044" y1="856.2658" y2="905.9236"/>
    <line x1="290.0607" x2="451.1953" y1="352.9779" y2="324.2416"/>
    <line x1="127.244" x2="146.4369" y1="460.1419" y2="325.3166"/>
    <line x1="414.1305" x2="407.6305" y1="484.3959" y2="330.7071"/>
    <line x1="44.7473" x2="119.3534" y1="1136.342" y2="1173.6496"/>
    <line x1="344.9138" x2="343.4722" y1="343.982" y2="421.821"/>
    <line x1="361.2291" x2="343.4722" y1="583.1575" y2="421.821"/>
    <line x1="308.7623" x2="199.294" y1="57.2461" y2="218.1219"/>
    <line x1="347.5463" x2="570.98" y1="823.4368" y2="793.1581"/>
    <line x1="290.0607" x2="320.1747" y1="352.9779" y2="552.9585"/>
    <line x1="232.0468" x2="190.258" y1="1057.1143" y2="1046.5488"/>
    <line x1="215.5981" x2="110.7498" y1="706.4308" y2="802.8964"/>
    <line x1="308.7623" x2="52.2064" y1="57.2461" y2="150.8079"/>
    <line x1="628.866" x2="596.2451" y1="393.0316" y2="513.0429"/>
    <line x1="201.4743" x2="99.4834" y1="311.2407" y2="234.2818"/>
    <line x1="509.0862" x2="515.5412" y1="35.7992" y2="113.2006"/>
    <line x1="540.7103" x2="509.0862" y1="276.3875" y2="35.7992"/>
    <line x1="146.4369" x2="78.2148" y1="325.3166" y2="176.9494"/>
    <line x1="516.3667" x2="561.5251" y1="514.7986" y2="512.7356"/>
    <line x1="596.2451" x2="561.5251" y1="513.0429" y2="512.7356"/>
    <line x1="540.7103" x2="515.5412" y1="276.3875" y2="113.2006"/>
    <line x1="535.7045" x2="557.7711" y1="308.5557" y2="461.3961"/>
    <line x1="277.5316" x2="153.7752" y1="1085.118" y2="979.1097"/>
    <line x1="368.3266" x2="623.741" y1="954.0959" y2="984.222"/>
    <line x1="290.0607" x2="407.6305" y1="352.9779" y2="330.7071"/>
    <line x1="492.7729" x2="525.0044" y1="787.8396" y2="905.9236"/>
    <line x1="127.244" x2="52.2064" y1="460.1419" y2="150.8079"/>
    <line x1="494.4252" x2="535.7045" y1="254.6474" y2="308.5557"/>
    <line x1="215.5981" x2="344.3357" y1="706.4308" y2="653.7701"/>
    <line x1="127.244" x2="343.4722" y1="460.1419" y2="421.821"/>
    <line x1="368.3266" x2="395.1951" y1="954.0959" y2="1025.6377"/>
    <line x1="344.9138" x2="312.3809" y1="343.982" y2="466.2054"/>
    <line x1="290.0607" x2="146.4369" y1="352.9779" y2="325.3166"/>
    <line x1="361.2291" x2="312.3809" y1="583.1575" y2="466.2054"/>
    <line x1="344.9138" x2="494.4252" y1="343.982" y2="254.6474"/>
    <line x1="516.3667" x2="414.1305" y1="514.7986" y2="484.3959"/>
    <line x1="414.1305" x2="343.4722" y1="484.3959" y2="421.821"/>
    <line x1="220.9514" x2="368.3266" y1="989.1562" y2="954.0959"/>
    <line x1="516.3667" x2="556.1631" y1="514.7986" y2="524.5762"/>
    <line x1="596.2451" x2="556.1631" y1="513.0429" y2="524.5762"/>
    <line x1="556.1631" x2="561.5251" y1="524.5762" y2="512.7356"/>
    <line x1="188.8845" x2="146.2557" y1="755.4152" y2="830.9701"/>
    <line x1="220.9514" x2="277.5316" y1="989.1562" y2="1085.118"/>
    <line x1="596.2451" x2="451.1953" y1="513.0429" y2="324.2416"/>
    <line x1="308.7623" x2="494.4252" y1="57.2461" y2="254.6474"/>
    <line x1="476.9206" x2="535.7045" y1="101.1683" y2="308.5557"/>
    <line x1="548.2593" x2="525.0044" y1="960.093" y2="905.9236"/>
    <line x1="220.9514" x2="363.1404" y1="989.1562" y2="977.5729"/>
    <line x1="281.304" x2="188.8845" y1="763.6836" y2="755.4152"/>
    <line x1="525.0044" x2="570.98" y1="905.9236" y2="793.1581"/>
    <line x1="516.3667" x2="320.1747" y1="514.7986" y2="552.9585"/>
    <line x1="368.3266" x2="277.5316" y1="954.0959" y2="1085.118"/>
    <line x1="361.2291" x2="516.3667" y1="583.1575" y2="514.7986"/>
    <line x1="290.0607" x2="199.294" y1="352.9779" y2="218.1219"/>
    <line x1="368.3266" x2="363.1404" y1="954.0959" y2="977.5729"/>
    <line x1="494.7245" x2="635.5676" y1="202.0564" y2="272.3162"/>
    <line x1="190.258" x2="363.1404" y1="1046.5488" y2="977.5729"/>
    <line x1="492.7729" x2="344.3357" y1="787.8396" y2="653.7701"/>
    <line x1="127.244" x2="312.3809" y1="460.1419" y2="466.2054"/>
    <line x1="99.4834" x2="78.2148" y1="234.2818" y2="176.9494"/>
    <line x1="407.6305" x2="343.4722" y1="330.7071" y2="421.821"/>
    <line x1="635.5676" x2="515.5412" y1="272.3162" y2="113.2006"/>
    <line x1="344.9138" x2="99.4834" y1="343.982" y2="234.2818"/>
    <line x1="290.0607" x2="343.4722" y1="352.9779" y2="421.821"/>
    <line x1="540.7103" x2="494.7245" y1="276.3875" y2="202.0564"/>
    <line x1="290.0607" x2="52.2064" y1="352.9779" y2="150.8079"/>
    <line x1="215.5981" x2="66.3119" y1="706.4308" y2="862.4525"/>
    <line x1="368.3266" x2="548.2593" y1="954.0959" y2="960.093"/>
    <line x1="494.4252" x2="515.5412" y1="254.6474" y2="113.2006"/>
    <line x1="414.1305" x2="312.3809" y1="484.3959" y2="466.2054"/>
    <line x1="414.1305" x2="557.7711" y1="484.3959" y2="461.3961"/>
    <line x1="110.7498" x2="66.3119" y1="802.8964" y2="862.4525"/>
    <line x1="220.9514" x2="190.258" y1="989.1562" y2="1046.5488"/>
    <line x1="476.9206" x2="515.5412" y1="101.1683" y2="113.2006"/>
    <line x1="66.3119" x2="188.8845" y1="862.4525" y2="755.4152"/>
    <line x1="281.304" x2="146.2557" y1="763.6836" y2="830.9701"/>
    <line x1="277.5316" x2="328.407" y1="1085.118" y2="912.1148"/>
    <line x1="153.7752" x2="146.2557" y1="979.1097" y2="830.9701"/>
    <line x1="44.7473" x2="153.7752" y1="1136.342" y2="979.1097"/>
    <line x1="407.6305" x2="312.3809" y1="330.7071" y2="466.2054"/>
    <line x1="127.244" x2="99.4834" y1="460.1419" y2="234.2818"/>
    <line x1="407.6305" x2="494.4252" y1="330.7071" y2="254.6474"/>
    <line x1="494.7245" x2="476.9206" y1="202.0564" y2="101.1683"/>
    <line x1="355.3071" x2="188.8845" y1="756.5927" y2="755.4152"/>
    <line x1="290.0607" x2="312.3809" y1="352.9779" y2="466.2054"/>
    <line x1="347.5463" x2="355.3071" y1="823.4368" y2="756.5927"/>
    <line x1="117.0213" x2="347.5463" y1="771.025" y2="823.4368"/>
    <line x1="215.5981" x2="320.1747" y1="706.4308" y2="552.9585"/>
    <line x1="44.7473" x2="146.2557" y1="1136.342" y2="830.9701"/>
    <line x1="308.7623" x2="509.0862" y1="57.2461" y2="35.7992"/>
    <line x1="220.9514" x2="232.0468" y1="989.1562" y2="1057.1143"/>
    <line x1="516.3667" x2="343.4722" y1="514.7986" y2="421.821"/>
    <line x1="201.4743" x2="127.244" y1="311.2407" y2="460.1419"/>
    <line x1="363.1404" x2="395.1951" y1="977.5729" y2="1025.6377"/>
    <line x1="308.7623" x2="515.5412" y1="57.2461" y2="113.2006"/>
    <line x1="368.3266" x2="232.0468" y1="954.0959" y2="1057.1143"/>
    <line x1="616.8028" x2="540.7103" y1="37.2552" y2="276.3875"/>
    <line x1="66.3119" x2="146.2557" y1="862.4525" y2="830.9701"/>
    <line x1="425.1875" x2="525.0044" y1="780.3835" y2="905.9236"/>
    <line x1="117.0213" x2="215.5981" y1="771.025" y2="706.4308"/>
    <line x1="368.3266" x2="347.5463" y1="954.0959" y2="823.4368"/>
    <line x1="290.0607" x2="99.4834" y1="352.9779" y2="234.2818"/>
    <line x1="407.6305" x2="535.7045" y1="330.7071" y2="308.5557"/>
    <line x1="215.5981" x2="188.8845" y1="706.4308" y2="755.4152"/>
    <line x1="277.5316" x2="395.1951" y1="1085.118" y2="1025.6377"/>
    <line x1="220.9514" x2="395.1951" y1="989.1562" y2="1025.6377"/>
    <line x1="516.3667" x2="628.866" y1="514.7986" y2="393.0316"/>
    <line x1="540.7103" x2="635.5676" y1="276.3875" y2="272.3162"/>
    <line x1="395.1951" x2="548.2593" y1="1025.6377" y2="960.093"/>
    <line x1="281.304" x2="328.407" y1="763.6836" y2="912.1148"/>
    <line x1="153.7752" x2="328.407" y1="979.1097" y2="912.1148"/>
    <line x1="199.294" x2="78.2148" y1="218.1219" y2="176.9494"/>
    <line x1="395.1951" x2="525.0044" y1="1025.6377" y2="905.9236"/>
    <line x1="363.1404" x2="548.2593" y1="977.5729" y2="960.093"/>
    <line x1="110.7498" x2="188.8845" y1="802.8964" y2="755.4152"/>
    <line x1="281.304" x2="425.1875" y1="763.6836" y2="780.3835"/>
    <line x1="516.3667" x2="557.7711" y1="514.7986" y2="461.3961"/>
    <line x1="596.2451" x2="557.7711" y1="513.0429" y2="461.3961"/>
    <line x1="425.1875" x2="344.3357" y1="780.3835" y2="653.7701"/>
    <line x1="117.0213" x2="281.304" y1="771.025" y2="763.6836"/>
    <line x1="277.5316" x2="363.1404" y1="1085.118" y2="977.5729"/>
    <line x1="328.407" x2="425.1875" y1="912.1148" y2="780.3835"/>
    <line x1="117.0213" x2="110.7498" y1="771.025" y2="802.8964"/>
    <line x1="99.4834" x2="146.4369" y1="234.2818" y2="325.3166"/>
    <line x1="232.0468" x2="119.3534" y1="1057.1143" y2="1173.6496"/>
    <line x1="344.9138" x2="127.244" y1="343.982" y2="460.1419"/>
    <line x1="215.5981" x2="146.2557" y1="706.4308" y2="830.9701"/>
    <line x1="414.1305" x2="596.2451" y1="484.3959" y2="513.0429"/>
    <line x1="110.7498" x2="153.7752" y1="802.8964" y2="979.1097"/>
    <line x1="540.7103" x2="476.9206" y1="276.3875" y2="101.1683"/>
    <line x1="556.1631" x2="557.7711" y1="524.5762" y2="461.3961"/>
    <line x1="368.3266" x2="525.0044" y1="954.0959" y2="905.9236"/>
    <line x1="494.7245" x2="451.1953" y1="202.0564" y2="324.2416"/>
    <line x1="616.8028" x2="494.4252" y1="37.2552" y2="254.6474"/>
    <line x1="220.9514" x2="110.7498" y1="989.1562" y2="802.8964"/>
    <line x1="596.2451" x2="535.7045" y1="513.0429" y2="308.5557"/>
    <line x1="615.6783" x2="492.7729" y1="856.2658" y2="787.8396"/>
    <line x1="110.7498" x2="146.2557" y1="802.8964" y2="830.9701"/>
    <line x1="277.5316" x2="190.258" y1="1085.118" y2="1046.5488"/>
    <line x1="99.4834" x2="52.2064" y1="234.2818" y2="150.8079"/>
    <line x1="535.7045" x2="515.5412" y1="308.5557" y2="113.2006"/>
    <line x1="328.407" x2="395.1951" y1="912.1148" y2="1025.6377"/>
    <line x1="344.9138" x2="201.4743" y1="343.982" y2="311.2407"/>
    <line x1="117.0213" x2="153.7752" y1="771.025" y2="979.1097"/>
    <line x1="628.866" x2="561.5251" y1="393.0316" y2="512.7356"/>
    <line x1="355.3071" x2="425.1875" y1="756.5927" y2="780.3835"/>
    <line x1="635.5676" x2="451.1953" y1="272.3162" y2="324.2416"/>
  </g>
</svg>
