<?xml version="1.0" encoding="utf-8" ?>
<svg xmlns="http://www.w3.org/2000/svg" xmlns:cc="http://creativecommons.org/ns" xmlns:dc="http://purl.org/dc/elements/1.1/" xmlns:ev="http://www.w3.org/2001/xml-events" xmlns:inkscape="http://www.inkscape.org/namespaces/inkscape" xmlns:rdf="http://www.w3.org/1999/02/22-rdf-syntax-ns" xmlns:sodipodi="http://sodipodi.sourceforge.net/DTD/sodipodi-0.dtd" xmlns:xlink="http://www.w3.org/1999/xlink" baseProfile="tiny" height="320mm" version="1.2" viewBox="0 0 680.3149606299213 1209.448818897638" width="180mm">
  <metadata>
    <rdf:RDF>
      <cc:Work>
        <dc:format>image/svg+xml</dc:format>
        <dc:source>Generated with vsketch</dc:source>
        <dc:date>2026-05-28T01:11:16.114197</dc:date>
      </cc:Work>
    </rdf:RDF>
  </metadata>
  <defs/>
  <g fill="none" id="layer1" inkscape:groupmode="layer" inkscape:label="1" stroke="#0000ff" stroke-width="1.1339" style="display:inline">
    <line x1="452.4403" x2="482.0999" y1="777.6664" y2="777.6664"/>
    <line x1="482.0999" x2="472.038" y1="777.6664" y2="590.249"/>
    <line x1="472.038" x2="444.4809" y1="590.249" y2="590.249"/>
    <line x1="444.4809" x2="452.4403" y1="590.249" y2="777.6664"/>
    <line x1="457.4983" x2="488.494" y1="777.0078" y2="777.0078"/>
    <line x1="488.494" x2="477.5401" y1="777.0078" y2="581.8198"/>
    <line x1="477.5401" x2="448.8333" y1="581.8198" y2="581.8198"/>
    <line x1="448.8333" x2="457.4983" y1="581.8198" y2="777.0078"/>
    <line x1="452.4403" x2="457.4983" y1="777.6664" y2="777.0078"/>
    <line x1="482.0999" x2="488.494" y1="777.6664" y2="777.0078"/>
    <line x1="444.4809" x2="448.8333" y1="590.249" y2="581.8198"/>
    <line x1="472.038" x2="477.5401" y1="590.249" y2="581.8198"/>
    <line x1="494.8111" x2="524.4707" y1="777.6664" y2="777.6664"/>
    <line x1="524.4707" x2="513.8492" y1="777.6664" y2="625.306"/>
    <line x1="513.8492" x2="485.8988" y1="625.306" y2="625.306"/>
    <line x1="485.8988" x2="494.8111" y1="625.306" y2="777.6664"/>
    <line x1="501.7778" x2="532.7735" y1="777.0078" y2="777.0078"/>
    <line x1="532.7735" x2="521.2036" y1="777.0078" y2="618.2358"/>
    <line x1="521.2036" x2="492.0697" y1="618.2358" y2="618.2358"/>
    <line x1="492.0697" x2="501.7778" y1="618.2358" y2="777.0078"/>
    <line x1="494.8111" x2="501.7778" y1="777.6664" y2="777.0078"/>
    <line x1="524.4707" x2="532.7735" y1="777.6664" y2="777.0078"/>
    <line x1="485.8988" x2="492.0697" y1="625.306" y2="618.2358"/>
    <line x1="513.8492" x2="521.2036" y1="625.306" y2="618.2358"/>
    <line x1="155.8442" x2="185.5038" y1="777.6664" y2="777.6664"/>
    <line x1="185.5038" x2="191.3581" y1="777.6664" y2="677.5839"/>
    <line x1="191.3581" x2="162.8213" y1="677.5839" y2="677.5839"/>
    <line x1="162.8213" x2="155.8442" y1="677.5839" y2="777.6664"/>
    <line x1="147.5415" x2="178.5371" y1="777.0078" y2="777.0078"/>
    <line x1="178.5371" x2="184.9199" y1="777.0078" y2="672.6208"/>
    <line x1="184.9199" x2="155.1483" y1="672.6208" y2="672.6208"/>
    <line x1="155.1483" x2="147.5415" y1="672.6208" y2="777.0078"/>
    <line x1="155.8442" x2="147.5415" y1="777.6664" y2="777.0078"/>
    <line x1="185.5038" x2="178.5371" y1="777.6664" y2="777.0078"/>
    <line x1="162.8213" x2="155.1483" y1="677.5839" y2="672.6208"/>
    <line x1="191.3581" x2="184.9199" y1="677.5839" y2="672.6208"/>
    <line x1="234.0521" x2="265.658" y1="776.707" y2="776.707"/>
    <line x1="265.658" x2="267.9475" y1="776.707" y2="695.4847"/>
    <line x1="267.9475" x2="237.3129" y1="695.4847" y2="695.4847"/>
    <line x1="237.3129" x2="234.0521" y1="695.4847" y2="776.707"/>
    <line x1="228.9436" x2="262.0712" y1="775.9568" y2="775.9568"/>
    <line x1="262.0712" x2="264.5827" y1="775.9568" y2="690.9739"/>
    <line x1="264.5827" x2="232.5207" y1="690.9739" y2="690.9739"/>
    <line x1="232.5207" x2="228.9436" y1="690.9739" y2="775.9568"/>
    <line x1="234.0521" x2="228.9436" y1="776.707" y2="775.9568"/>
    <line x1="265.658" x2="262.0712" y1="776.707" y2="775.9568"/>
    <line x1="237.3129" x2="232.5207" y1="695.4847" y2="690.9739"/>
    <line x1="267.9475" x2="264.5827" y1="695.4847" y2="690.9739"/>
    <line x1="532.7516" x2="536.5653" y1="776.707" y2="776.707"/>
    <line x1="536.5653" x2="518.2482" y1="776.707" y2="530.2258"/>
    <line x1="518.2482" x2="489.5899" y1="530.2258" y2="530.2258"/>
    <line x1="489.5899" x2="495.0779" y1="530.2258" y2="618.2358"/>
    <line x1="532.6969" x2="546.0214" y1="775.9568" y2="775.9568"/>
    <line x1="546.0214" x2="525.9881" y1="775.9568" y2="518.8366"/>
    <line x1="525.9881" x2="496.0843" y1="518.8366" y2="518.8366"/>
    <line x1="496.0843" x2="502.5827" y1="518.8366" y2="618.2358"/>
    <line x1="536.5653" x2="546.0214" y1="776.707" y2="775.9568"/>
    <line x1="489.5899" x2="496.0843" y1="530.2258" y2="518.8366"/>
    <line x1="518.2482" x2="525.9881" y1="530.2258" y2="518.8366"/>
    <line x1="279.2033" x2="310.8092" y1="776.707" y2="776.707"/>
    <line x1="310.8092" x2="312.5473" y1="776.707" y2="620.1819"/>
    <line x1="312.5473" x2="282.8133" y1="620.1819" y2="620.1819"/>
    <line x1="282.8133" x2="279.2033" y1="620.1819" y2="776.707"/>
    <line x1="276.2687" x2="309.3962" y1="775.9568" y2="775.9568"/>
    <line x1="309.3962" x2="311.3003" y1="775.9568" y2="612.4087"/>
    <line x1="311.3003" x2="280.2233" y1="612.4087" y2="612.4087"/>
    <line x1="280.2233" x2="276.2687" y1="612.4087" y2="775.9568"/>
    <line x1="279.2033" x2="276.2687" y1="776.707" y2="775.9568"/>
    <line x1="310.8092" x2="309.3962" y1="776.707" y2="775.9568"/>
    <line x1="282.8133" x2="280.2233" y1="620.1819" y2="612.4087"/>
    <line x1="312.5473" x2="311.3003" y1="620.1819" y2="612.4087"/>
    <line x1="98.5984" x2="130.2043" y1="776.707" y2="776.707"/>
    <line x1="130.2043" x2="135.8769" y1="776.707" y2="705.2985"/>
    <line x1="135.8769" x2="105.125" y1="705.2985" y2="705.2985"/>
    <line x1="105.125" x2="98.5984" y1="705.2985" y2="776.707"/>
    <line x1="86.9685" x2="120.096" y1="775.9568" y2="775.9568"/>
    <line x1="120.096" x2="126.3199" y1="775.9568" y2="701.2288"/>
    <line x1="126.3199" x2="94.1293" y1="701.2288" y2="701.2288"/>
    <line x1="94.1293" x2="86.9685" y1="701.2288" y2="775.9568"/>
    <line x1="98.5984" x2="86.9685" y1="776.707" y2="775.9568"/>
    <line x1="130.2043" x2="120.096" y1="776.707" y2="775.9568"/>
    <line x1="105.125" x2="94.1293" y1="705.2985" y2="701.2288"/>
    <line x1="135.8769" x2="126.3199" y1="705.2985" y2="701.2288"/>
    <line x1="321.9673" x2="358.3477" y1="774.3532" y2="774.3532"/>
    <line x1="358.3477" x2="356.9484" y1="774.3532" y2="571.2333"/>
    <line x1="356.9484" x2="323.3665" y1="571.2333" y2="571.2333"/>
    <line x1="323.3665" x2="321.9673" y1="571.2333" y2="774.3532"/>
    <line x1="320.9518" x2="359.3631" y1="773.3519" y2="773.3519"/>
    <line x1="359.3631" x2="357.81" y1="773.3519" y2="559.891"/>
    <line x1="357.81" x2="322.505" y1="559.891" y2="559.891"/>
    <line x1="322.505" x2="320.9518" y1="559.891" y2="773.3519"/>
    <line x1="321.9673" x2="320.9518" y1="774.3532" y2="773.3519"/>
    <line x1="358.3477" x2="359.3631" y1="774.3532" y2="773.3519"/>
    <line x1="323.3665" x2="322.505" y1="571.2333" y2="559.891"/>
    <line x1="356.9484" x2="357.81" y1="571.2333" y2="559.891"/>
    <line x1="425.9113" x2="452.2996" y1="774.3532" y2="774.3532"/>
    <line x1="453.3865" x2="451.3063" y1="581.8198" y2="536.8458"/>
    <line x1="451.3063" x2="418.1981" y1="536.8458" y2="536.8458"/>
    <line x1="418.1981" x2="425.9113" y1="536.8458" y2="774.3532"/>
    <line x1="430.6984" x2="452.257" y1="773.3519" y2="773.3519"/>
    <line x1="459.7528" x2="456.9248" y1="581.8198" y2="523.9333"/>
    <line x1="456.9248" x2="422.1431" y1="523.9333" y2="523.9333"/>
    <line x1="422.1431" x2="430.6984" y1="523.9333" y2="773.3519"/>
    <line x1="425.9113" x2="430.6984" y1="774.3532" y2="773.3519"/>
    <line x1="418.1981" x2="422.1431" y1="536.8458" y2="523.9333"/>
    <line x1="451.3063" x2="456.9248" y1="536.8458" y2="523.9333"/>
    <line x1="545.8965" x2="566.2357" y1="774.3532" y2="774.3532"/>
    <line x1="566.2357" x2="549.0498" y1="774.3532" y2="573.6233"/>
    <line x1="549.0498" x2="530.2567" y1="573.6233" y2="573.6233"/>
    <line x1="545.8185" x2="578.8564" y1="773.3519" y2="773.3519"/>
    <line x1="578.8564" x2="559.7791" y1="773.3519" y2="562.392"/>
    <line x1="559.7791" x2="529.3817" y1="562.392" y2="562.392"/>
    <line x1="566.2357" x2="578.8564" y1="774.3532" y2="773.3519"/>
    <line x1="549.0498" x2="559.7791" y1="573.6233" y2="562.392"/>
    <line x1="130.3913" x2="147.7349" y1="774.3532" y2="774.3532"/>
    <line x1="157.7681" x2="169.729" y1="672.6208" y2="506.1249"/>
    <line x1="169.729" x2="137.0441" y1="506.1249" y2="506.1249"/>
    <line x1="137.0441" x2="120.3399" y1="506.1249" y2="701.2288"/>
    <line x1="130.4708" x2="139.8699" y1="773.3519" y2="773.3519"/>
    <line x1="139.8699" x2="161.2296" y1="773.3519" y2="491.8536"/>
    <line x1="161.2296" x2="126.9147" y1="491.8536" y2="491.8536"/>
    <line x1="147.7536" x2="139.8699" y1="774.0973" y2="773.3519"/>
    <line x1="137.0441" x2="126.9147" y1="506.1249" y2="491.8536"/>
    <line x1="169.729" x2="161.2296" y1="506.1249" y2="491.8536"/>
    <line x1="185.7834" x2="191.1789" y1="772.8878" y2="772.8878"/>
    <line x1="191.1789" x2="194.9862" y1="772.8878" y2="705.4421"/>
    <line x1="194.9862" x2="189.7286" y1="705.4421" y2="705.4421"/>
    <line x1="191.1789" x2="185.8241" y1="772.8878" y2="772.1905"/>
    <line x1="578.8144" x2="584.7072" y1="772.8878" y2="772.8878"/>
    <line x1="584.7072" x2="566.6441" y1="772.8878" y2="577.9565"/>
    <line x1="566.6441" x2="561.1866" y1="577.9565" y2="577.9565"/>
    <line x1="578.708" x2="599.5421" y1="771.7109" y2="771.7109"/>
    <line x1="599.5421" x2="579.3118" y1="771.7109" y2="565.9688"/>
    <line x1="579.3118" x2="560.1026" y1="565.9688" y2="565.9688"/>
    <line x1="584.7072" x2="599.5421" y1="772.8878" y2="771.7109"/>
    <line x1="566.6441" x2="579.3118" y1="577.9565" y2="565.9688"/>
    <line x1="489.136" x2="494.5316" y1="772.8878" y2="772.8878"/>
    <line x1="493.6438" x2="479.1076" y1="595.2378" y2="595.2378"/>
    <line x1="479.1076" x2="489.136" y1="595.2378" y2="772.8878"/>
    <line x1="492.9514" x2="486.9373" y1="584.1342" y2="584.1342"/>
    <line x1="486.9373" x2="489.1785" y1="584.1342" y2="621.5484"/>
    <line x1="489.136" x2="494.4908" y1="772.8878" y2="772.1905"/>
    <line x1="479.1076" x2="486.9373" y1="595.2378" y2="584.1342"/>
    <line x1="108.1628" x2="102.4346" y1="699.2149" y2="699.2149"/>
    <line x1="102.4346" x2="102.248" y1="699.2149" y2="701.2288"/>
    <line x1="80.7729" x2="87.3753" y1="771.7109" y2="771.7109"/>
    <line x1="108.6583" x2="88.44" y1="693.7358" y2="693.7358"/>
    <line x1="88.44" x2="80.7729" y1="693.7358" y2="771.7109"/>
    <line x1="87.3255" x2="80.7729" y1="772.2307" y2="771.7109"/>
    <line x1="102.4346" x2="88.44" y1="699.2149" y2="693.7358"/>
    <line x1="265.7656" x2="276.3429" y1="772.8878" y2="772.8878"/>
    <line x1="305.8376" x2="306.6971" y1="612.4087" y2="550.3372"/>
    <line x1="306.6971" x2="270.6628" y1="550.3372" y2="550.3372"/>
    <line x1="270.6628" x2="266.5428" y1="550.3372" y2="693.6016"/>
    <line x1="265.7988" x2="276.3713" y1="771.7109" y2="771.7109"/>
    <line x1="303.7395" x2="304.8479" y1="612.4087" y2="536.9661"/>
    <line x1="304.8479" x2="266.8222" y1="536.9661" y2="536.9661"/>
    <line x1="270.6628" x2="266.8222" y1="550.3372" y2="536.9661"/>
    <line x1="306.6971" x2="304.8479" y1="550.3372" y2="536.9661"/>
    <line x1="12.6291" x2="55.4833" y1="771.1617" y2="771.1617"/>
    <line x1="55.4833" x2="87.2207" y1="771.1617" y2="477.1279"/>
    <line x1="87.2207" x2="49.1442" y1="477.1279" y2="477.1279"/>
    <line x1="49.1442" x2="12.6291" y1="477.1279" y2="771.1617"/>
    <line x1="-9.1247" x2="36.5758" y1="769.7585" y2="769.7585"/>
    <line x1="36.5758" x2="72.4038" y1="769.7585" y2="458.666"/>
    <line x1="72.4038" x2="32.0968" y1="458.666" y2="458.666"/>
    <line x1="32.0968" x2="-9.1247" y1="458.666" y2="769.7585"/>
    <line x1="12.6291" x2="-9.1247" y1="771.1617" y2="769.7585"/>
    <line x1="55.4833" x2="36.5758" y1="771.1617" y2="769.7585"/>
    <line x1="49.1442" x2="32.0968" y1="477.1279" y2="458.666"/>
    <line x1="87.2207" x2="72.4038" y1="477.1279" y2="458.666"/>
    <line x1="599.4881" x2="606.4656" y1="771.1617" y2="771.1617"/>
    <line x1="606.4656" x2="583.4679" y1="771.1617" y2="543.4037"/>
    <line x1="583.4679" x2="544.3145" y1="543.4037" y2="543.4037"/>
    <line x1="544.3145" x2="545.9233" y1="543.4037" y2="562.392"/>
    <line x1="599.3501" x2="624.1532" y1="769.7585" y2="769.7585"/>
    <line x1="624.1532" x2="598.1483" y1="769.7585" y2="528.387"/>
    <line x1="598.1483" x2="556.6326" y1="528.387" y2="528.387"/>
    <line x1="556.6326" x2="559.7067" y1="528.387" y2="562.392"/>
    <line x1="606.4656" x2="624.1532" y1="771.1617" y2="769.7585"/>
    <line x1="544.3145" x2="556.6326" y1="543.4037" y2="528.387"/>
    <line x1="583.4679" x2="598.1483" y1="543.4037" y2="528.387"/>
    <line x1="318.7304" x2="320.9678" y1="771.1617" y2="771.1617"/>
    <line x1="359.3472" x2="361.5846" y1="771.1617" y2="771.1617"/>
    <line x1="361.5846" x2="360.4705" y1="771.1617" y2="634.0363"/>
    <line x1="360.4705" x2="358.3495" y1="634.0363" y2="634.0363"/>
    <line x1="321.9655" x2="319.8444" y1="634.0363" y2="634.0363"/>
    <line x1="319.8444" x2="318.7304" y1="634.0363" y2="771.1617"/>
    <line x1="317.3072" x2="320.978" y1="769.7585" y2="769.7585"/>
    <line x1="359.337" x2="363.0077" y1="769.7585" y2="769.7585"/>
    <line x1="363.0077" x2="361.7451" y1="769.7585" y2="624.1063"/>
    <line x1="361.7451" x2="358.2772" y1="624.1063" y2="624.1063"/>
    <line x1="322.0377" x2="318.5698" y1="624.1063" y2="624.1063"/>
    <line x1="318.5698" x2="317.3072" y1="624.1063" y2="769.7585"/>
    <line x1="318.7304" x2="317.3072" y1="771.1617" y2="769.7585"/>
    <line x1="361.5846" x2="363.0077" y1="771.1617" y2="769.7585"/>
    <line x1="319.8444" x2="318.5698" y1="634.0363" y2="624.1063"/>
    <line x1="360.4705" x2="361.7451" y1="634.0363" y2="624.1063"/>
    <line x1="-19.3582" x2="-9.0372" y1="769.0984" y2="769.0984"/>
    <line x1="65.1052" x2="23.6995" y1="453.4763" y2="453.4763"/>
    <line x1="23.6995" x2="-19.3582" y1="453.4763" y2="769.0984"/>
    <line x1="-45.7397" x2="-8.8117" y1="767.3967" y2="767.3967"/>
    <line x1="44.0701" x2="47.4938" y1="458.666" y2="431.7824"/>
    <line x1="47.4938" x2="3.4369" y1="431.7824" y2="431.7824"/>
    <line x1="3.4369" x2="-45.7397" y1="431.7824" y2="767.3967"/>
    <line x1="-19.3582" x2="-45.7397" y1="769.0984" y2="767.3967"/>
    <line x1="23.6995" x2="3.4369" y1="453.4763" y2="431.7824"/>
    <line x1="65.1052" x2="47.4938" y1="453.4763" y2="431.7824"/>
    <line x1="652.6337" x2="699.6732" y1="769.0984" y2="769.0984"/>
    <line x1="699.6732" x2="669.1334" y1="769.0984" y2="545.2358"/>
    <line x1="669.1334" x2="626.0898" y1="545.2358" y2="545.2358"/>
    <line x1="626.0898" x2="652.6337" y1="545.2358" y2="769.0984"/>
    <line x1="675.5634" x2="726.0546" y1="767.3967" y2="767.3967"/>
    <line x1="726.0546" x2="691.0864" y1="767.3967" y2="528.7497"/>
    <line x1="691.0864" x2="645.1704" y1="528.7497" y2="528.7497"/>
    <line x1="645.1704" x2="675.5634" y1="528.7497" y2="767.3967"/>
    <line x1="652.6337" x2="675.5634" y1="769.0984" y2="767.3967"/>
    <line x1="699.6732" x2="726.0546" y1="769.0984" y2="767.3967"/>
    <line x1="626.0898" x2="645.1704" y1="545.2358" y2="528.7497"/>
    <line x1="669.1334" x2="691.0864" y1="545.2358" y2="528.7497"/>
  </g>
</svg>
