<?xml version="1.0" encoding="utf-8" ?>
<svg xmlns="http://www.w3.org/2000/svg" xmlns:cc="http://creativecommons.org/ns" xmlns:dc="http://purl.org/dc/elements/1.1/" xmlns:ev="http://www.w3.org/2001/xml-events" xmlns:inkscape="http://www.inkscape.org/namespaces/inkscape" xmlns:rdf="http://www.w3.org/1999/02/22-rdf-syntax-ns" xmlns:sodipodi="http://sodipodi.sourceforge.net/DTD/sodipodi-0.dtd" xmlns:xlink="http://www.w3.org/1999/xlink" baseProfile="tiny" height="320mm" version="1.2" viewBox="0 0 680.3149606299213 1209.448818897638" width="180mm">
  <metadata>
    <rdf:RDF>
      <cc:Work>
        <dc:format>image/svg+xml</dc:format>
        <dc:source>Generated with vsketch</dc:source>
        <dc:date>2026-05-28T01:11:15.876889</dc:date>
      </cc:Work>
    </rdf:RDF>
  </metadata>
  <defs/>
  <g fill="none" id="layer1" inkscape:groupmode="layer" inkscape:label="1" stroke="#0000ff" stroke-width="1.1339" style="display:inline">
    <line x1="88.5028" x2="88.5028" y1="392.2015" y2="1098.6622"/>
    <line x1="52.3454" x2="124.6603" y1="396.5604" y2="396.5604"/>
    <line x1="290.8701" x2="290.8701" y1="172.0695" y2="1098.6622"/>
    <line x1="254.7126" x2="327.0276" y1="184.8693" y2="184.8693"/>
    <line x1="366.7499" x2="366.7499" y1="205.6315" y2="1098.6622"/>
    <line x1="330.5924" x2="402.9074" y1="222.2491" y2="222.2491"/>
    <line x1="288.6071" x2="288.6071" y1="324.3141" y2="1098.6622"/>
    <line x1="252.4496" x2="324.7646" y1="340.5855" y2="340.5855"/>
    <line x1="460.4384" x2="460.4384" y1="336.3492" y2="1098.6622"/>
    <line x1="424.2809" x2="496.5958" y1="345.5167" y2="345.5167"/>
    <line x1="591.8121" x2="591.8121" y1="110.7867" y2="1098.6622"/>
    <line x1="555.6546" x2="627.9696" y1="122.9753" y2="122.9753"/>
    <polyline points="88.5028,421.9441 119.9597,411.0123 151.4165,399.6541 182.8733,387.8695 214.3302,375.6585 245.787,363.0211 277.2438,349.9573 308.7007,336.4671 340.1575,322.5505 371.6143,308.2075 403.0711,293.4381 434.528,278.2423 465.9848,262.6201 497.4416,246.5715 528.8985,230.0965 560.3553,213.1952 591.8121,195.8674"/>
    <polyline points="88.5028,447.2153 101.1508,439.4764 113.7988,431.4031 126.4467,422.9954 139.0947,414.2535 151.7426,405.1772 164.3906,395.7665 177.0385,386.0215 189.6865,375.9422 202.3344,365.5285 214.9824,354.7805 227.6303,343.6981 240.2783,332.2814 252.9262,320.5304 265.5742,308.445 278.2221,296.0253 290.8701,283.2712"/>
    <polyline points="88.5028,453.569 111.7488,450.1602 134.9948,446.4908 158.2408,442.5607 181.4867,438.3698 204.7327,433.9182 227.9787,429.206 251.2246,424.233 274.4706,418.9994 297.7166,413.505 320.9625,407.7499 344.2085,401.7342 367.4545,395.4577 390.7005,388.9205 413.9464,382.1226 437.1924,375.064 460.4384,367.7448"/>
    <polyline points="88.5028,450.7164 101.1508,436.7012 113.7988,422.3422 126.4467,407.6393 139.0947,392.5925 151.7426,377.2018 164.3906,361.4671 177.0385,345.3887 189.6865,328.9663 202.3344,312.2 214.9824,295.0898 227.6303,277.6357 240.2783,259.8378 252.9262,241.6959 265.5742,223.2102 278.2221,204.3806 290.8701,185.207"/>
    <polyline points="88.5028,480.2664 119.9597,467.0131 151.4165,453.0272 182.8733,438.3085 214.3302,422.8572 245.787,406.6733 277.2438,389.7566 308.7007,372.1072 340.1575,353.7252 371.6143,334.6105 403.0711,314.7631 434.528,294.1831 465.9848,272.8703 497.4416,250.8249 528.8985,228.0468 560.3553,204.536 591.8121,180.2925"/>
    <polyline points="88.5028,452.1361 105.8933,441.5357 123.2837,430.7286 140.6742,419.7146 158.0646,408.4939 175.455,397.0663 192.8455,385.4319 210.2359,373.5908 227.6264,361.5428 245.0168,349.288 262.4072,336.8263 279.7977,324.1579 297.1881,311.2827 314.5786,298.2006 331.969,284.9118 349.3594,271.4161 366.7499,257.7136"/>
    <polyline points="88.5028,488.878 105.8933,477.3785 123.2837,465.6121 140.6742,453.5789 158.0646,441.2788 175.455,428.7118 192.8455,415.878 210.2359,402.7773 227.6264,389.4098 245.0168,375.7754 262.4072,361.8741 279.7977,347.706 297.1881,333.2711 314.5786,318.5692 331.969,303.6005 349.3594,288.365 366.7499,272.8626"/>
    <polyline points="88.5028,487.4322 101.0094,482.4518 113.5159,477.2576 126.0224,471.8495 138.5289,466.2276 151.0354,460.3918 163.5419,454.3421 176.0485,448.0786 188.555,441.6013 201.0615,434.9101 213.568,428.005 226.0745,420.8861 238.581,413.5533 251.0876,406.0067 263.5941,398.2462 276.1006,390.2719 288.6071,382.0837"/>
    <polyline points="88.5028,408.9738 119.9597,400.5277 151.4165,391.4974 182.8733,381.8827 214.3302,371.6837 245.787,360.9004 277.2438,349.5329 308.7007,337.581 340.1575,325.0448 371.6143,311.9244 403.0711,298.2196 434.528,283.9305 465.9848,269.0572 497.4416,253.5995 528.8985,237.5575 560.3553,220.9313 591.8121,203.7207"/>
    <polyline points="88.5028,481.4472 111.7488,477.1582 134.9948,472.413 158.2408,467.2116 181.4867,461.554 204.7327,455.4401 227.9787,448.87 251.2246,441.8436 274.4706,434.361 297.7166,426.4222 320.9625,418.0271 344.2085,409.1758 367.4545,399.8683 390.7005,390.1045 413.9464,379.8845 437.1924,369.2083 460.4384,358.0758"/>
    <polyline points="88.5028,401.4484 105.8933,397.9468 123.2837,394.0884 140.6742,389.8731 158.0646,385.301 175.455,380.372 192.8455,375.0862 210.2359,369.4436 227.6264,363.4441 245.0168,357.0878 262.4072,350.3746 279.7977,343.3046 297.1881,335.8778 314.5786,328.0941 331.969,319.9536 349.3594,311.4563 366.7499,302.6021"/>
    <polyline points="88.5028,491.5884 101.1508,476.888 113.7988,461.9309 126.4467,446.7171 139.0947,431.2466 151.7426,415.5194 164.3906,399.5355 177.0385,383.2948 189.6865,366.7975 202.3344,350.0435 214.9824,333.0327 227.6303,315.7653 240.2783,298.2411 252.9262,280.4602 265.5742,262.4227 278.2221,244.1284 290.8701,225.5774"/>
    <polyline points="88.5028,465.4171 119.9597,453.4612 151.4165,440.8244 182.8733,427.5067 214.3302,413.508 245.787,398.8285 277.2438,383.4681 308.7007,367.4267 340.1575,350.7045 371.6143,333.3014 403.0711,315.2173 434.528,296.4524 465.9848,277.0066 497.4416,256.8798 528.8985,236.0722 560.3553,214.5836 591.8121,192.4142"/>
    <polyline points="290.8701,204.0305 278.2221,219.61 265.5742,234.8837 252.9262,249.8516 240.2783,264.5137 227.6303,278.8699 214.9824,292.9203 202.3344,306.6649 189.6865,320.1037 177.0385,333.2366 164.3906,346.0637 151.7426,358.585 139.0947,370.8005 126.4467,382.7102 113.7988,394.314 101.1508,405.612 88.5028,416.6042"/>
    <polyline points="290.8701,281.3361 309.679,274.085 328.4879,266.5217 347.2967,258.6461 366.1056,250.4584 384.9145,241.9585 403.7234,233.1464 422.5322,224.022 441.3411,214.5855 460.15,204.8368 478.9589,194.7758 497.7677,184.4027 516.5766,173.7174 535.3855,162.7198 554.1944,151.4101 573.0032,139.7882 591.8121,127.854"/>
    <polyline points="290.8701,273.5176 301.4681,281.9663 312.0661,290.2115 322.6642,298.2532 333.2622,306.0914 343.8602,313.7262 354.4582,321.1575 365.0562,328.3853 375.6542,335.4097 386.2523,342.2305 396.8503,348.8479 407.4483,355.2618 418.0463,361.4723 428.6443,367.4793 439.2423,373.2828 449.8403,378.8828 460.4384,384.2793"/>
    <polyline points="290.8701,248.4303 309.679,249.0265 328.4879,249.2646 347.2967,249.1446 366.1056,248.6665 384.9145,247.8303 403.7234,246.636 422.5322,245.0836 441.3411,243.1732 460.15,240.9046 478.9589,238.278 497.7677,235.2932 516.5766,231.9504 535.3855,228.2495 554.1944,224.1905 573.0032,219.7734 591.8121,214.9983"/>
    <polyline points="290.8701,272.475 278.2221,286.2098 265.5742,299.7349 252.9262,313.0505 240.2783,326.1564 227.6303,339.0527 214.9824,351.7394 202.3344,364.2164 189.6865,376.4838 177.0385,388.5416 164.3906,400.3898 151.7426,412.0283 139.0947,423.4572 126.4467,434.6764 113.7988,445.6861 101.1508,456.4861 88.5028,467.0765"/>
    <polyline points="290.8701,196.0704 301.4681,212.0518 312.0661,227.8568 322.6642,243.4854 333.2622,258.9376 343.8602,274.2134 354.4582,289.3128 365.0562,304.2357 375.6542,318.9823 386.2523,333.5524 396.8503,347.9461 407.4483,362.1635 418.0463,376.2044 428.6443,390.0689 439.2423,403.757 449.8403,417.2687 460.4384,430.604"/>
    <polyline points="290.8701,265.6681 301.4681,272.4645 312.0661,279.0992 322.6642,285.5721 333.2622,291.8832 343.8602,298.0327 354.4582,304.0204 365.0562,309.8464 375.6542,315.5106 386.2523,321.0131 396.8503,326.3539 407.4483,331.5329 418.0463,336.5502 428.6443,341.4057 439.2423,346.0996 449.8403,350.6317 460.4384,355.002"/>
    <polyline points="290.8701,250.4573 301.4681,258.3809 312.0661,266.1325 322.6642,273.7121 333.2622,281.1197 343.8602,288.3553 354.4582,295.419 365.0562,302.3107 375.6542,309.0304 386.2523,315.5781 396.8503,321.9538 407.4483,328.1576 418.0463,334.1894 428.6443,340.0492 439.2423,345.737 449.8403,351.2529 460.4384,356.5967"/>
    <polyline points="290.8701,201.8327 290.7287,213.2923 290.5872,224.6426 290.4458,235.8836 290.3044,247.0153 290.1629,258.0377 290.0215,268.9508 289.88,279.7546 289.7386,290.4492 289.5972,301.0344 289.4557,311.5103 289.3143,321.877 289.1728,332.1344 289.0314,342.2824 288.89,352.3212 288.7485,362.2507 288.6071,372.0709"/>
    <polyline points="290.8701,243.8609 278.2221,258.14 265.5742,272.1109 252.9262,285.7735 240.2783,299.1279 227.6303,312.174 214.9824,324.9119 202.3344,337.3415 189.6865,349.4628 177.0385,361.2759 164.3906,372.7807 151.7426,383.9773 139.0947,394.8656 126.4467,405.4456 113.7988,415.7174 101.1508,425.681 88.5028,435.3362"/>
    <polyline points="290.8701,220.9645 290.7287,235.1384 290.5872,249.1032 290.4458,262.8588 290.3044,276.4054 290.1629,289.743 290.0215,302.8714 289.88,315.7907 289.7386,328.501 289.5972,341.0022 289.4557,353.2942 289.3143,365.3772 289.1728,377.2511 289.0314,388.916 288.89,400.3717 288.7485,411.6183 288.6071,422.6559"/>
    <polyline points="290.8701,263.9431 290.7287,270.86 290.5872,277.6807 290.4458,284.4051 290.3044,291.0334 290.1629,297.5654 290.0215,304.0013 289.88,310.3409 289.7386,316.5844 289.5972,322.7316 289.4557,328.7827 289.3143,334.7375 289.1728,340.5962 289.0314,346.3586 288.89,352.0249 288.7485,357.5949 288.6071,363.0687"/>
    <polyline points="290.8701,285.0178 309.679,277.748 328.4879,270.2253 347.2967,262.4499 366.1056,254.4216 384.9145,246.1406 403.7234,237.6067 422.5322,228.82 441.3411,219.7806 460.15,210.4883 478.9589,200.9432 497.7677,191.1453 516.5766,181.0946 535.3855,170.7911 554.1944,160.2348 573.0032,149.4257 591.8121,138.3638"/>
    <polyline points="366.7499,234.8627 362.0074,236.9936 357.2649,239.0382 352.5224,240.9965 347.7799,242.8685 343.0374,244.6541 338.295,246.3533 333.5525,247.9663 328.81,249.4928 324.0675,250.9331 319.325,252.287 314.5825,253.5546 309.84,254.7359 305.0976,255.8308 300.3551,256.8393 295.6126,257.7616 290.8701,258.5975"/>
    <polyline points="366.7499,220.2212 349.3594,235.9508 331.969,251.3718 314.5786,266.4841 297.1881,281.2879 279.7977,295.7831 262.4072,309.9696 245.0168,323.8476 227.6264,337.4169 210.2359,350.6776 192.8455,363.6297 175.455,376.2732 158.0646,388.6081 140.6742,400.6344 123.2837,412.3521 105.8933,423.7612 88.5028,434.8616"/>
    <polyline points="366.7499,257.3274 361.8659,267.0536 356.982,276.5954 352.0981,285.9528 347.2142,295.1258 342.3303,304.1144 337.4463,312.9185 332.5624,321.5382 327.6785,329.9735 322.7946,338.2244 317.9106,346.2909 313.0267,354.1729 308.1428,361.8706 303.2589,369.3838 298.3749,376.7126 293.491,383.857 288.6071,390.8169"/>
    <polyline points="366.7499,247.0181 372.6054,256.8389 378.4609,266.5184 384.3165,276.0565 390.172,285.4533 396.0275,294.7088 401.8831,303.8229 407.7386,312.7957 413.5941,321.6272 419.4496,330.3174 425.3052,338.8662 431.1607,347.2736 437.0162,355.5398 442.8718,363.6646 448.7273,371.6481 454.5828,379.4902 460.4384,387.191"/>
    <polyline points="366.7499,218.0738 372.6054,227.8923 378.4609,237.5794 384.3165,247.1349 390.172,256.559 396.0275,265.8517 401.8831,275.0128 407.7386,284.0425 413.5941,292.9408 419.4496,301.7075 425.3052,310.3428 431.1607,318.8467 437.0162,327.2191 442.8718,335.46 448.7273,343.5694 454.5828,351.5474 460.4384,359.3939"/>
    <polyline points="366.7499,241.1267 362.0074,241.6332 357.2649,242.0416 352.5224,242.3519 347.7799,242.5641 343.0374,242.6782 338.295,242.6942 333.5525,242.6121 328.81,242.4319 324.0675,242.1537 319.325,241.7773 314.5825,241.3028 309.84,240.7303 305.0976,240.0596 300.3551,239.2909 295.6126,238.424 290.8701,237.4591"/>
    <polyline points="366.7499,293.4674 362.0074,292.1846 357.2649,290.8088 352.5224,289.3398 347.7799,287.7778 343.0374,286.1227 338.295,284.3745 333.5525,282.5332 328.81,280.5988 324.0675,278.5714 319.325,276.4509 314.5825,274.2372 309.84,271.9305 305.0976,269.5308 300.3551,267.0379 295.6126,264.4519 290.8701,261.7729"/>
    <polyline points="366.7499,309.6848 372.6054,317.2274 378.4609,324.6382 384.3165,331.9171 390.172,339.0642 396.0275,346.0794 401.8831,352.9627 407.7386,359.7142 413.5941,366.3338 419.4496,372.8216 425.3052,379.1774 431.1607,385.4014 437.0162,391.4936 442.8718,397.4539 448.7273,403.2823 454.5828,408.9788 460.4384,414.5435"/>
    <polyline points="366.7499,214.3717 361.8659,225.6949 356.982,236.8861 352.0981,247.9452 347.2142,258.8723 342.3303,269.6673 337.4463,280.3303 332.5624,290.8612 327.6785,301.2601 322.7946,311.5269 317.9106,321.6617 313.0267,331.6644 308.1428,341.5351 303.2589,351.2737 298.3749,360.8803 293.491,370.3548 288.6071,379.6973"/>
    <polyline points="366.7499,263.0121 362.0074,263.3379 357.2649,263.6043 352.5224,263.8112 347.7799,263.9586 343.0374,264.0465 338.295,264.0749 333.5525,264.0438 328.81,263.9533 324.0675,263.8032 319.325,263.5936 314.5825,263.3246 309.84,262.9961 305.0976,262.6081 300.3551,262.1606 295.6126,261.6536 290.8701,261.0871"/>
    <polyline points="366.7499,292.7993 349.3594,304.3575 331.969,315.6997 314.5786,326.8258 297.1881,337.7358 279.7977,348.4296 262.4072,358.9074 245.0168,369.1691 227.6264,379.2148 210.2359,389.0443 192.8455,398.6577 175.455,408.0551 158.0646,417.2363 140.6742,426.2015 123.2837,434.9506 105.8933,443.4836 88.5028,451.8005"/>
    <polyline points="366.7499,251.1713 349.3594,265.0283 331.969,278.492 314.5786,291.5622 297.1881,304.2391 279.7977,316.5225 262.4072,328.4126 245.0168,339.9093 227.6264,351.0126 210.2359,361.7225 192.8455,372.039 175.455,381.9621 158.0646,391.4919 140.6742,400.6282 123.2837,409.3712 105.8933,417.7207 88.5028,425.6769"/>
    <polyline points="366.7499,219.7435 380.8163,219.3274 394.8827,218.752 408.949,218.0172 423.0154,217.1231 437.0818,216.0696 451.1482,214.8568 465.2146,213.4847 479.281,211.9532 493.3474,210.2624 507.4138,208.4123 521.4802,206.4028 535.5466,204.234 549.6129,201.9059 563.6793,199.4184 577.7457,196.7716 591.8121,193.9654"/>
    <polyline points="366.7499,231.9256 380.8163,231.7686 394.8827,231.4179 408.949,230.8735 423.0154,230.1354 437.0818,229.2037 451.1482,228.0782 465.2146,226.759 479.281,225.2461 493.3474,223.5395 507.4138,221.6393 521.4802,219.5453 535.5466,217.2576 549.6129,214.7763 563.6793,212.1012 577.7457,209.2324 591.8121,206.17"/>
    <polyline points="288.6071,434.8304 293.491,426.37 298.3749,417.7185 303.2589,408.8758 308.1428,399.842 313.0267,390.6171 317.9106,381.201 322.7946,371.5938 327.6785,361.7954 332.5624,351.8059 337.4463,341.6252 342.3303,331.2534 347.2142,320.6905 352.0981,309.9364 356.982,298.9911 361.8659,287.8548 366.7499,276.5273"/>
    <polyline points="288.6071,369.1645 288.7485,363.998 288.89,358.767 289.0314,353.4714 289.1728,348.1113 289.3143,342.6867 289.4557,337.1976 289.5972,331.644 289.7386,326.0259 289.88,320.3432 290.0215,314.596 290.1629,308.7843 290.3044,302.9081 290.4458,296.9674 290.5872,290.9622 290.7287,284.8924 290.8701,278.7581"/>
    <polyline points="288.6071,410.2952 276.1006,413.2903 263.5941,416.0753 251.0876,418.6501 238.581,421.0147 226.0745,423.1691 213.568,425.1134 201.0615,426.8474 188.555,428.3713 176.0485,429.6851 163.5419,430.7886 151.0354,431.682 138.5289,432.3652 126.0224,432.8382 113.5159,433.1011 101.0094,433.1538 88.5028,432.9963"/>
    <polyline points="288.6071,367.512 307.5574,356.7853 326.5077,345.71 345.458,334.286 364.4084,322.5133 383.3587,310.3919 402.309,297.9218 421.2593,285.103 440.2096,271.9355 459.1599,258.4193 478.1102,244.5544 497.0605,230.3409 516.0109,215.7786 534.9612,200.8676 553.9115,185.608 572.8618,169.9996 591.8121,154.0425"/>
    <polyline points="288.6071,380.2781 276.1006,389.2739 263.5941,398.0878 251.0876,406.7196 238.581,415.1693 226.0745,423.437 213.568,431.5227 201.0615,439.4263 188.555,447.1479 176.0485,454.6874 163.5419,462.0449 151.0354,469.2204 138.5289,476.2138 126.0224,483.0252 113.5159,489.6545 101.0094,496.1018 88.5028,502.367"/>
    <polyline points="288.6071,409.1514 276.1006,412.3244 263.5941,415.3516 251.0876,418.2328 238.581,420.968 226.0745,423.5573 213.568,426.0007 201.0615,428.2981 188.555,430.4496 176.0485,432.4551 163.5419,434.3147 151.0354,436.0284 138.5289,437.5961 126.0224,439.0179 113.5159,440.2937 101.0094,441.4236 88.5028,442.4075"/>
    <polyline points="288.6071,326.222 293.491,321.9805 298.3749,317.5863 303.2589,313.0395 308.1428,308.3402 313.0267,303.4882 317.9106,298.4836 322.7946,293.3265 327.6785,288.0167 332.5624,282.5544 337.4463,276.9394 342.3303,271.1718 347.2142,265.2517 352.0981,259.1789 356.982,252.9536 361.8659,246.5756 366.7499,240.0451"/>
    <polyline points="288.6071,354.0378 307.5574,347.4209 326.5077,340.4615 345.458,333.1595 364.4084,325.5148 383.3587,317.5276 402.309,309.1977 421.2593,300.5253 440.2096,291.5102 459.1599,282.1526 478.1102,272.4523 497.0605,262.4095 516.0109,252.0241 534.9612,241.296 553.9115,230.2254 572.8618,218.8121 591.8121,207.0563"/>
    <polyline points="288.6071,395.7832 288.7485,385.9231 288.89,375.8562 289.0314,365.5824 289.1728,355.1017 289.3143,344.414 289.4557,333.5195 289.5972,322.418 289.7386,311.1097 289.88,299.5944 290.0215,287.8722 290.1629,275.9432 290.3044,263.8072 290.4458,251.4643 290.5872,238.9145 290.7287,226.1578 290.8701,213.1942"/>
    <polyline points="288.6071,327.317 299.3466,332.1958 310.086,336.9216 320.8255,341.4943 331.5649,345.9139 342.3044,350.1805 353.0438,354.294 363.7833,358.2545 374.5227,362.062 385.2622,365.7163 396.0016,369.2177 406.7411,372.5659 417.4805,375.7611 428.22,378.8033 438.9595,381.6924 449.6989,384.4285 460.4384,387.0115"/>
    <polyline points="288.6071,338.7844 307.5574,328.8034 326.5077,318.4635 345.458,307.7646 364.4084,296.7067 383.3587,285.29 402.309,273.5143 421.2593,261.3796 440.2096,248.8861 459.1599,236.0335 478.1102,222.8221 497.0605,209.2517 516.0109,195.3224 534.9612,181.0342 553.9115,166.387 572.8618,151.3808 591.8121,136.0158"/>
    <polyline points="288.6071,368.2816 293.491,364.5407 298.3749,360.6911 303.2589,356.733 308.1428,352.6663 313.0267,348.4909 317.9106,344.207 322.7946,339.8144 327.6785,335.3132 332.5624,330.7035 337.4463,325.9851 342.3303,321.1581 347.2142,316.2225 352.0981,311.1783 356.982,306.0255 361.8659,300.7641 366.7499,295.3941"/>
    <polyline points="460.4384,419.3886 449.8403,409.6354 439.2423,399.6904 428.6443,389.5535 418.0463,379.2246 407.4483,368.7038 396.8503,357.991 386.2523,347.0864 375.6542,335.9898 365.0562,324.7013 354.4582,313.2208 343.8602,301.5485 333.2622,289.6842 322.6642,277.628 312.0661,265.3798 301.4681,252.9398 290.8701,240.3078"/>
    <polyline points="460.4384,425.1032 468.6492,408.6992 476.8601,392.1005 485.0709,375.3072 493.2818,358.3192 501.4927,341.1364 509.7035,323.759 517.9144,306.1869 526.1252,288.4201 534.3361,270.4586 542.547,252.3024 550.7578,233.9516 558.9687,215.406 567.1795,196.6658 575.3904,177.7308 583.6013,158.6012 591.8121,139.2768"/>
    <polyline points="460.4384,397.5788 468.6492,386.8547 476.8601,375.9017 485.0709,364.72 493.2818,353.3094 501.4927,341.67 509.7035,329.8018 517.9144,317.7048 526.1252,305.379 534.3361,292.8244 542.547,280.041 550.7578,267.0287 558.9687,253.7876 567.1795,240.3178 575.3904,226.6191 583.6013,212.6916 591.8121,198.5353"/>
    <polyline points="460.4384,405.6937 468.6492,389.1849 476.8601,372.4518 485.0709,355.4943 493.2818,338.3124 501.4927,320.9062 509.7035,303.2756 517.9144,285.4207 526.1252,267.3413 534.3361,249.0376 542.547,230.5096 550.7578,211.7572 558.9687,192.7804 567.1795,173.5792 575.3904,154.1537 583.6013,134.5038 591.8121,114.6296"/>
    <polyline points="460.4384,401.0432 454.5828,391.8745 448.7273,382.4498 442.8718,372.7689 437.0162,362.8319 431.1607,352.6388 425.3052,342.1895 419.4496,331.4841 413.5941,320.5225 407.7386,309.3049 401.8831,297.831 396.0275,286.1011 390.172,274.115 384.3165,261.8728 378.4609,249.3745 372.6054,236.62 366.7499,223.6094"/>
    <polyline points="460.4384,394.2104 437.1924,398.1775 413.9464,401.7351 390.7005,404.883 367.4545,407.6212 344.2085,409.9499 320.9625,411.8689 297.7166,413.3783 274.4706,414.478 251.2246,415.1681 227.9787,415.4486 204.7327,415.3195 181.4867,414.7807 158.2408,413.8324 134.9948,412.4743 111.7488,410.7067 88.5028,408.5294"/>
    <polyline points="460.4384,351.5581 468.6492,338.2389 476.8601,324.7326 485.0709,311.0392 493.2818,297.1588 501.4927,283.0912 509.7035,268.8366 517.9144,254.3949 526.1252,239.7661 534.3361,224.9503 542.547,209.9473 550.7578,194.7573 558.9687,179.3802 567.1795,163.816 575.3904,148.0647 583.6013,132.1264 591.8121,116.0009"/>
    <polyline points="460.4384,358.0965 449.8403,351.6989 439.2423,345.1114 428.6443,338.3342 418.0463,331.367 407.4483,324.2101 396.8503,316.8633 386.2523,309.3267 375.6542,301.6002 365.0562,293.684 354.4582,285.5778 343.8602,277.2819 333.2622,268.7961 322.6642,260.1204 312.0661,251.255 301.4681,242.1997 290.8701,232.9545"/>
    <polyline points="460.4384,444.5365 468.6492,431.5339 476.8601,418.2364 485.0709,404.6439 493.2818,390.7566 501.4927,376.5743 509.7035,362.0971 517.9144,347.3249 526.1252,332.2578 534.3361,316.8958 542.547,301.2389 550.7578,285.287 558.9687,269.0402 567.1795,252.4985 575.3904,235.6618 583.6013,218.5302 591.8121,201.1037"/>
    <polyline points="460.4384,432.1629 468.6492,419.8242 476.8601,407.3396 485.0709,394.7089 493.2818,381.9324 501.4927,369.0098 509.7035,355.9413 517.9144,342.7268 526.1252,329.3664 534.3361,315.8599 542.547,302.2075 550.7578,288.4092 558.9687,274.4648 567.1795,260.3745 575.3904,246.1383 583.6013,231.756 591.8121,217.2278"/>
    <polyline points="460.4384,377.198 437.1924,381.629 413.9464,385.6827 390.7005,389.359 367.4545,392.658 344.2085,395.5796 320.9625,398.1239 297.7166,400.2909 274.4706,402.0805 251.2246,403.4928 227.9787,404.5277 204.7327,405.1852 181.4867,405.4655 158.2408,405.3684 134.9948,404.8939 111.7488,404.0421 88.5028,402.813"/>
    <polyline points="460.4384,365.8708 437.1924,371.5868 413.9464,377.0099 390.7005,382.14 367.4545,386.9772 344.2085,391.5215 320.9625,395.7728 297.7166,399.7311 274.4706,403.3965 251.2246,406.769 227.9787,409.8485 204.7327,412.6351 181.4867,415.1288 158.2408,417.3295 134.9948,419.2372 111.7488,420.852 88.5028,422.1739"/>
    <polyline points="460.4384,420.3618 449.6989,420.292 438.9595,420.0459 428.22,419.6235 417.4805,419.0249 406.7411,418.2499 396.0016,417.2987 385.2622,416.1712 374.5227,414.8674 363.7833,413.3874 353.0438,411.731 342.3044,409.8984 331.5649,407.8895 320.8255,405.7043 310.086,403.3428 299.3466,400.8051 288.6071,398.0911"/>
    <polyline points="591.8121,114.6469 560.3553,139.8797 528.8985,164.4669 497.4416,188.4085 465.9848,211.7044 434.528,234.3547 403.0711,256.3594 371.6143,277.7184 340.1575,298.4318 308.7007,318.4996 277.2438,337.9218 245.787,356.6983 214.3302,374.8293 182.8733,392.3145 151.4165,409.1542 119.9597,425.3483 88.5028,440.8967"/>
    <polyline points="591.8121,154.5148 573.0032,157.1637 554.1944,159.6245 535.3855,161.8971 516.5766,163.9816 497.7677,165.8779 478.9589,167.586 460.15,169.106 441.3411,170.4378 422.5322,171.5814 403.7234,172.5369 384.9145,173.3042 366.1056,173.8834 347.2967,174.2744 328.4879,174.4772 309.679,174.4919 290.8701,174.3184"/>
    <polyline points="591.8121,135.3294 560.3553,158.3347 528.8985,180.8051 497.4416,202.7404 465.9848,224.1408 434.528,245.0062 403.0711,265.3367 371.6143,285.1321 340.1575,304.3926 308.7007,323.118 277.2438,341.3085 245.787,358.9641 214.3302,376.0846 182.8733,392.6702 151.4165,408.7208 119.9597,424.2364 88.5028,439.217"/>
    <polyline points="591.8121,113.2204 560.3553,139.3717 528.8985,165.1417 497.4416,190.5304 465.9848,215.5378 434.528,240.1639 403.0711,264.4086 371.6143,288.272 340.1575,311.7541 308.7007,334.8549 277.2438,357.5744 245.787,379.9126 214.3302,401.8694 182.8733,423.4449 151.4165,444.6391 119.9597,465.452 88.5028,485.8835"/>
    <polyline points="591.8121,121.3306 573.0032,134.2095 554.1944,146.7042 535.3855,158.8145 516.5766,170.5406 497.7677,181.8824 478.9589,192.84 460.15,203.4133 441.3411,213.6023 422.5322,223.407 403.7234,232.8275 384.9145,241.8637 366.1056,250.5156 347.2967,258.7833 328.4879,266.6667 309.679,274.1658 290.8701,281.2807"/>
    <polyline points="591.8121,125.7739 583.6013,143.4298 575.3904,160.8518 567.1795,178.0398 558.9687,194.994 550.7578,211.7143 542.547,228.2006 534.3361,244.453 526.1252,260.4716 517.9144,276.2562 509.7035,291.8069 501.4927,307.1237 493.2818,322.2066 485.0709,337.0555 476.8601,351.6706 468.6492,366.0517 460.4384,380.199"/>
    <polyline points="591.8121,209.9359 577.7457,213.707 563.6793,217.335 549.6129,220.8201 535.5466,224.1621 521.4802,227.3612 507.4138,230.4172 493.3474,233.3302 479.281,236.1002 465.2146,238.7273 451.1482,241.2113 437.0818,243.5523 423.0154,245.7502 408.949,247.8052 394.8827,249.7172 380.8163,251.4862 366.7499,253.1121"/>
    <polyline points="591.8121,124.0199 560.3553,145.5259 528.8985,166.5063 497.4416,186.961 465.9848,206.8899 434.528,226.2932 403.0711,245.1708 371.6143,263.5227 340.1575,281.3489 308.7007,298.6495 277.2438,315.4243 245.787,331.6735 214.3302,347.3969 182.8733,362.5947 151.4165,377.2668 119.9597,391.4132 88.5028,405.0339"/>
    <polyline points="591.8121,121.2282 572.8618,141.5428 553.9115,161.438 534.9612,180.914 516.0109,199.9706 497.0605,218.608 478.1102,236.8261 459.1599,254.6248 440.2096,272.0043 421.2593,288.9645 402.309,305.5054 383.3587,321.6271 364.4084,337.3294 345.458,352.6124 326.5077,367.4762 307.5574,381.9206 288.6071,395.9458"/>
    <polyline points="591.8121,202.337 560.3553,225.1701 528.8985,247.2845 497.4416,268.6801 465.9848,289.357 434.528,309.315 403.0711,328.5542 371.6143,347.0746 340.1575,364.8763 308.7007,381.9591 277.2438,398.3232 245.787,413.9685 214.3302,428.8949 182.8733,443.1026 151.4165,456.5915 119.9597,469.3616 88.5028,481.4129"/>
    <polyline points="591.8121,186.7899 560.3553,207.5085 528.8985,227.8309 497.4416,247.7574 465.9848,267.2878 434.528,286.4222 403.0711,305.1606 371.6143,323.5029 340.1575,341.4492 308.7007,358.9994 277.2438,376.1537 245.787,392.9119 214.3302,409.274 182.8733,425.2401 151.4165,440.8102 119.9597,455.9843 88.5028,470.7623"/>
  </g>
</svg>
